<?xml version="1.0" encoding="iso-8859-1"?>
<!-- Generator: Adobe Illustrator 19.0.0, SVG Export Plug-In . SVG Version: 6.00 Build 0)  -->
<svg xmlns="http://www.w3.org/2000/svg" xmlns:xlink="http://www.w3.org/1999/xlink" version="1.1" id="Capa_1" x="0px" y="0px" viewBox="0 0 460.8 460.8" style="enable-background:new 0 0 460.8 460.8;" xml:space="preserve" width="512px" height="512px">
<g>
	<g>
		<path d="M410.624,49.664H50.176C22.528,49.664,0,72.192,0,99.84v261.12c0,27.648,22.528,50.176,50.176,50.176h360.448    c27.648,0,50.176-22.528,50.176-50.176V99.84C460.8,72.192,438.272,49.664,410.624,49.664z M99.84,167.936    c4.608-22.528,26.624-37.376,49.152-32.768c22.528,4.608,37.376,26.624,32.768,49.152c-3.072,16.384-16.384,29.696-32.768,32.768    c-22.528,4.608-44.544-10.24-49.152-32.768C98.816,179.2,98.816,173.568,99.84,167.936z M211.968,315.392    c0,6.144-5.12,11.264-11.264,11.264H80.896c-6.144,0-11.264-5.12-11.264-11.264V302.08c-0.512-36.864,26.624-67.584,62.976-72.704    c38.912-4.608,74.752,23.552,78.848,62.464c0.512,2.56,0.512,5.632,0.512,8.192V315.392z M387.072,290.304H252.928v-33.792    h134.144V290.304z M387.072,204.288H252.928v-33.792h134.144V204.288z" fill="#FAFAFA"/>
	</g>
</g>
<g>
</g>
<g>
</g>
<g>
</g>
<g>
</g>
<g>
</g>
<g>
</g>
<g>
</g>
<g>
</g>
<g>
</g>
<g>
</g>
<g>
</g>
<g>
</g>
<g>
</g>
<g>
</g>
<g>
</g>
</svg>
