<?xml version="1.0" encoding="utf-8"?>
<!-- Generator: Adobe Illustrator 15.1.0, SVG Export Plug-In . SVG Version: 6.00 Build 0)  -->
<!DOCTYPE svg PUBLIC "-//W3C//DTD SVG 1.1//EN" "http://www.w3.org/Graphics/SVG/1.1/DTD/svg11.dtd">
<svg version="1.1" id="Layer_1" xmlns="http://www.w3.org/2000/svg" xmlns:xlink="http://www.w3.org/1999/xlink" x="0px" y="0px"
	 width="512px" height="512px" viewBox="394.241 4.674 512 512" enable-background="new 394.241 4.674 512 512"
	 xml:space="preserve">
<g>
	<path fill="#FAFAFA" d="M562.677,74.211c3.823-1.287,8.619-3.063,10.62-3.766c9.882-3.902,27.716-2.656,47.201,3.242
		c7.858,2.258,23.351,7.226,34.565,10.832c37.512,12.143,59.967,14.679,90.788,10.434c7.979-1.086,18.945-1.978,24.451-1.893
		c5.6,0.021,17.805,0.02,27.324,0.088c30.658,0.214,73.278,4.78,87.229,9.375c14.341,4.796,19.234,8.857,19.476,15.691
		c0.113,2.723-1.349,3.845-19.892,16.431c-23.852,15.946-25.175,17.287-43.362,43.156c-17.811,25.465-23.866,35.532-33.953,56.192
		c-5.542,11.438-12.679,28.9-15.435,37.874c-0.66,2.143-2.084,6.661-3.216,10.05c-7.244,22.2-14.627,93.427-13.471,127.929
		c0.304,8.5-0.998,21.632-2.672,26.165c-1.533,3.965-2.942,5.362-11.25,10.862l-9.479,6.274l-7.214-1.284
		c-3.938-0.657-11.684-3.142-17.038-5.343c-32.069-13.729-82.917-30.713-103.221-34.516c-3.688-0.669-9.891-1.998-13.723-2.884
		c-23.881-5.474-74.59-4.993-102.43,1.003c-4.359,0.87-13.946,2.865-21.207,4.249c-33.766,6.662-36.307,7.727-60.282,23.286
		c-18.758,12.265-19.822,12.814-23.059,11.848c-9.706-2.895-9.727-22.148,0.029-54.088c1.592-5.243,4.534-15.116,6.725-22.006
		c3.454-11.455,12.195-33.558,23.199-58.708c2.345-5.28,7.558-15.255,11.657-22.011c16.599-28.077,23.265-53.309,25.753-97.993
		c1.12-20.472,6.138-47.409,10.372-56.116c1.854-3.869,5.768-9.725,8.484-13.075c2.877-3.303,5.844-6.666,6.549-7.755
		C502.61,109.784,550.255,78.396,562.677,74.211z"/>
</g>
</svg>
