<?xml version="1.0" encoding="iso-8859-1"?>
<!-- Generator: Adobe Illustrator 19.0.0, SVG Export Plug-In . SVG Version: 6.00 Build 0)  -->
<svg xmlns="http://www.w3.org/2000/svg" xmlns:xlink="http://www.w3.org/1999/xlink" version="1.1" id="Capa_1" x="0px" y="0px" viewBox="0 0 512 512" style="enable-background:new 0 0 512 512;" xml:space="preserve" width="512px" height="512px">
<g>
	<g>
		<path d="M440.746,377.074H71.255c-25.82,0-46.827,21.007-46.827,46.827v41.272c0,25.82,21.007,46.827,46.827,46.827h369.491    c25.82,0,46.827-21.007,46.827-46.827v-41.272C487.574,398.079,466.567,377.074,440.746,377.074z" fill="#FAFAFA"/>
	</g>
</g>
<g>
	<g>
		<path d="M127.724,147.505c-36.447,0-66.101,29.653-66.101,66.101c0,36.448,29.652,66.101,66.101,66.101    s66.101-29.653,66.101-66.101C193.825,177.158,164.172,147.505,127.724,147.505z" fill="#FAFAFA"/>
	</g>
</g>
<g>
	<g>
		<path d="M480.431,115.161c-3.457-7.544-12.376-10.857-19.922-7.4l-43.337,19.861l-34.494-31.651l-0.088-45.904l43.314-21.587    c7.428-3.702,10.448-12.725,6.746-20.152c-3.702-7.427-12.723-10.448-20.152-6.746l-51.656,25.744    c-0.067,0.033-0.126,0.074-0.192,0.108c-0.266,0.138-0.526,0.287-0.783,0.441c-0.184,0.109-0.369,0.217-0.547,0.334    c-0.208,0.136-0.408,0.283-0.609,0.429c-0.209,0.152-0.42,0.304-0.619,0.465c-0.153,0.124-0.299,0.257-0.448,0.388    c-0.224,0.196-0.447,0.393-0.657,0.6c-0.122,0.121-0.235,0.249-0.354,0.374c-0.214,0.226-0.428,0.453-0.626,0.691    c-0.118,0.141-0.226,0.292-0.34,0.438c-0.177,0.229-0.357,0.459-0.519,0.697c-0.13,0.19-0.247,0.389-0.369,0.585    c-0.127,0.205-0.258,0.409-0.375,0.619c-0.135,0.243-0.254,0.497-0.377,0.748c-0.085,0.176-0.175,0.349-0.253,0.528    c-0.12,0.275-0.223,0.559-0.328,0.842c-0.062,0.17-0.129,0.339-0.185,0.511c-0.089,0.273-0.162,0.553-0.235,0.833    c-0.052,0.199-0.108,0.397-0.152,0.597c-0.053,0.244-0.093,0.493-0.134,0.741c-0.042,0.251-0.084,0.503-0.114,0.757    c-0.023,0.205-0.037,0.414-0.052,0.621c-0.023,0.305-0.04,0.608-0.044,0.915c-0.001,0.072-0.011,0.142-0.01,0.214l0.099,52.018    l-146.61,64.996c-1.146,0.508-1.582,1.924-0.895,2.973c4.576,6.986,7.872,14.882,9.536,23.358    c0.251,1.281,1.639,1.986,2.832,1.457l147.275-65.29l39.447,36.196c0.032,0.03,0.068,0.054,0.1,0.083    c0.294,0.263,0.594,0.516,0.906,0.755c0.053,0.041,0.104,0.084,0.157,0.124c0.343,0.255,0.695,0.498,1.057,0.722    c0.111,0.069,0.224,0.13,0.337,0.195c0.242,0.142,0.487,0.279,0.735,0.407c0.162,0.084,0.327,0.163,0.491,0.241    c0.214,0.1,0.431,0.193,0.649,0.284c0.167,0.069,0.333,0.141,0.501,0.204c0.356,0.132,0.715,0.25,1.08,0.356    c0.141,0.04,0.284,0.071,0.427,0.107c0.267,0.068,0.537,0.132,0.808,0.186c0.143,0.028,0.286,0.053,0.431,0.077    c0.301,0.05,0.602,0.091,0.906,0.123c0.104,0.011,0.206,0.024,0.311,0.033c0.423,0.036,0.846,0.06,1.273,0.06    c0.808,0,1.621-0.087,2.431-0.221c0.21-0.034,0.423-0.058,0.632-0.101c0.214-0.045,0.427-0.11,0.64-0.165    c0.307-0.078,0.614-0.153,0.917-0.25c0.16-0.052,0.318-0.119,0.477-0.176c0.351-0.126,0.699-0.258,1.041-0.41    c0.038-0.017,0.076-0.028,0.114-0.045l52.407-24.017C480.575,131.626,483.888,122.707,480.431,115.161z" fill="#FAFAFA"/>
	</g>
</g>
<g>
	<g>
		<path d="M304.101,327.189l-88.895-94.433c-0.955-1.015-2.662-0.295-2.588,1.096c0.06,1.12,0.092,2.248,0.092,3.383    c0,36.449-29.653,66.102-66.102,66.102h-0.036c-1.315,0-2.002,1.564-1.112,2.532l32.681,35.569    c1.982,2.156,4.776,3.383,7.704,3.383h110.638C305.652,344.821,310.385,333.865,304.101,327.189z" fill="#FAFAFA"/>
	</g>
</g>
<g>
</g>
<g>
</g>
<g>
</g>
<g>
</g>
<g>
</g>
<g>
</g>
<g>
</g>
<g>
</g>
<g>
</g>
<g>
</g>
<g>
</g>
<g>
</g>
<g>
</g>
<g>
</g>
<g>
</g>
</svg>
