<?xml version="1.0"?>
<svg xmlns="http://www.w3.org/2000/svg" height="512px" viewBox="0 -95 447.88617 447" width="512px"><path d="m314.050781 11.964844c-6.503906-7.390625-15.894531-11.59375-25.734375-11.519532h-128.859375c-9.84375-.074218-19.234375 4.128907-25.734375 11.519532l-20.667968 27.683594h221.660156zm0 0" fill="#FAFAFA"/><path d="m352.734375 203.839844c0 2.292968-1.855469 4.148437-4.148437 4.148437-2.292969 0-4.148438-1.855469-4.148438-4.148437 0-2.292969 1.855469-4.152344 4.148438-4.152344 2.292968 0 4.148437 1.859375 4.148437 4.152344zm0 0" fill="#FAFAFA"/><path d="m352.734375 106.25c0 2.292969-1.855469 4.152344-4.148437 4.152344-2.292969 0-4.148438-1.859375-4.148438-4.152344 0-2.289062 1.855469-4.148438 4.148438-4.148438 2.292968 0 4.148437 1.859376 4.148437 4.148438zm0 0" fill="#FAFAFA"/><path d="m303.941406 155.046875c0 2.292969-1.859375 4.148437-4.148437 4.148437-2.292969 0-4.152344-1.855468-4.152344-4.148437s1.859375-4.152344 4.152344-4.152344c2.289062 0 4.148437 1.859375 4.148437 4.152344zm0 0" fill="#FAFAFA"/><path d="m397.386719 150.894531c-2.292969 0-4.152344 1.859375-4.152344 4.152344 0 2.289063 1.859375 4.148437 4.152344 4.148437s4.148437-1.859374 4.148437-4.148437c0-2.292969-1.859375-4.148437-4.148437-4.152344zm0 0" fill="#FAFAFA"/><path d="m349.074219 59.648438h-250.375c-45.953125.054687-85.800781 31.773437-96.15625 76.542968-10.355469 44.769532 11.515625 90.769532 52.773437 110.996094 41.261719 20.222656 91.019532 9.339844 120.0625-26.265625 1.902344-2.316406 4.738282-3.660156 7.734375-3.660156h81.546875c2.996094 0 5.832032 1.34375 7.730469 3.660156 29.039063 35.65625 78.835937 46.578125 120.132813 26.34375 41.296874-20.230469 63.191406-66.269531 52.8125-111.070313-10.375-44.800781-50.273438-76.527343-96.261719-76.546874zm-222.5 107.835937h-23.730469v23.730469c0 5.523437-4.476562 10-10 10s-10-4.476563-10-10v-23.730469h-23.730469c-5.523437 0-10-4.476563-10-10s4.476563-10 10-10h23.730469v-23.726563c0-5.523437 4.476562-10 10-10s10 4.476563 10 10v23.730469h23.730469c5.523437 0 10 4.476563 10 10 0 5.523438-4.476563 10-10 10zm173.21875 11.710937c-13.339844 0-24.152344-10.8125-24.152344-24.148437 0-13.339844 10.8125-24.152344 24.152344-24.152344 13.335937 0 24.148437 10.8125 24.148437 24.152344-.015625 13.332031-10.820312 24.132813-24.148437 24.148437zm48.796875 48.792969c-13.335938 0-24.148438-10.8125-24.148438-24.148437 0-13.335938 10.8125-24.148438 24.148438-24.148438 13.339844 0 24.152344 10.8125 24.152344 24.148438-.015626 13.332031-10.824219 24.136718-24.15625 24.148437zm0-97.585937c-13.335938 0-24.148438-10.8125-24.148438-24.152344 0-13.335938 10.8125-24.148438 24.148438-24.148438 13.339844 0 24.152344 10.8125 24.152344 24.148438-.015626 13.335938-10.824219 24.136719-24.15625 24.152344zm48.800781 48.796875c-13.335937 0-24.148437-10.808594-24.148437-24.148438 0-13.335937 10.8125-24.148437 24.148437-24.148437 13.339844 0 24.152344 10.8125 24.152344 24.148437-.019531 13.332031-10.824219 24.132813-24.15625 24.144531zm0 0" fill="#FAFAFA"/></svg>
